<svg version="1.1" id="Layer_1" xmlns="http://www.w3.org/2000/svg" xmlns:xlink="http://www.w3.org/1999/xlink" x="0px" y="0px"
	 width="100%" viewBox="0 0 626 626" enable-background="new 0 0 626 626" xml:space="preserve">
<path fill="#E17E29" opacity="1.000000" stroke="none" 
	d="
M435.000000,627.000000 
	C290.000031,627.000000 145.500046,627.000000 1.000058,627.000000 
	C1.000039,418.333405 1.000039,209.666794 1.000019,1.000142 
	C209.666565,1.000095 418.333130,1.000095 626.999756,1.000047 
	C626.999878,209.666519 626.999878,418.333038 626.999939,626.999756 
	C563.166687,627.000000 499.333344,627.000000 435.000000,627.000000 
M394.499939,475.874817 
	C449.914795,475.874817 505.329651,475.874817 561.792969,475.874817 
	C518.840027,369.120697 476.389771,263.615967 433.604919,157.279739 
	C417.652649,197.248962 402.036743,236.375366 385.948547,276.685150 
	C359.303528,209.843018 333.241272,144.462906 306.759705,78.030823 
	C282.533661,138.222473 258.751282,197.311935 234.575470,257.378815 
	C221.094421,223.607391 208.007507,190.823303 194.621552,157.290070 
	C151.801544,263.715363 109.315666,369.310242 66.439621,475.874817 
	C176.233734,475.874817 284.866821,475.874817 394.499939,475.874817 
z"/>
<path fill="#020101" opacity="1.000000" stroke="none" 
	d="
M393.999939,475.874817 
	C284.866821,475.874817 176.233734,475.874817 66.439621,475.874817 
	C109.315666,369.310242 151.801544,263.715363 194.621552,157.290070 
	C208.007507,190.823303 221.094421,223.607391 234.575470,257.378815 
	C258.751282,197.311935 282.533661,138.222473 306.759705,78.030823 
	C333.241272,144.462906 359.303528,209.843018 385.948547,276.685150 
	C402.036743,236.375366 417.652649,197.248962 433.604919,157.279739 
	C476.389771,263.615967 518.840027,369.120697 561.792969,475.874817 
	C505.329651,475.874817 449.914795,475.874817 393.999939,475.874817 
M299.516937,254.973114 
	C289.956482,241.029160 280.396057,227.085205 270.645416,212.863846 
	C269.974579,213.995667 269.554871,214.533112 269.310181,215.140961 
	C251.317673,259.835449 233.299774,304.519867 215.503647,349.292450 
	C214.797241,351.069672 215.565445,354.127197 216.733917,355.851318 
	C234.471344,382.023682 252.382706,408.078247 270.273193,434.146790 
	C274.460327,440.247955 278.720734,446.298767 282.966766,452.400543 
	C283.632019,451.864197 283.795990,451.783203 283.886597,451.651672 
	C308.517975,415.887085 333.169525,380.136230 357.654144,344.271332 
	C358.424683,343.142639 358.094086,340.412445 357.229279,339.141846 
	C338.223358,311.218201 319.069061,283.395538 299.516937,254.973114 
M454.354523,281.865021 
	C441.204529,301.065002 428.112030,320.304932 414.838318,339.418976 
	C412.989075,342.081848 412.777405,344.214935 413.977997,347.169769 
	C421.660828,366.079102 429.173615,385.057587 436.724915,404.020233 
	C442.598114,418.768860 448.446075,433.527557 454.506744,448.789154 
	C455.503235,447.608887 456.190582,446.922516 456.731415,446.135498 
	C471.888092,424.078674 486.961609,401.964081 502.261047,380.006866 
	C504.166046,377.272858 503.582855,375.205688 502.565918,372.688873 
	C494.359528,352.378632 486.186157,332.055023 477.996948,311.737854 
	C472.668732,298.518646 467.330872,285.303375 461.729279,271.422150 
	C459.133728,275.096588 456.951843,278.185394 454.354523,281.865021 
M307.756927,237.751083 
	C342.277740,288.035736 376.798584,338.320404 411.319427,388.605072 
	C411.728363,388.392365 412.137268,388.179657 412.546204,387.966949 
	C377.392517,299.756805 342.238861,211.546631 306.672150,122.300011 
	C297.039398,146.323029 287.844849,169.107010 278.875244,191.979187 
	C278.326141,193.379333 279.086182,195.793671 280.032440,197.201645 
	C289.031677,210.592133 298.203003,223.866959 307.756927,237.751083 
M437.619904,456.090485 
	C414.968994,423.088623 392.318085,390.086731 369.327606,356.590118 
	C345.807190,390.850952 322.689392,424.525269 299.200897,458.739594 
	C300.805115,458.870636 301.580322,458.989227 302.355560,458.989410 
	C346.688263,458.998474 391.020935,458.998718 435.353638,458.991394 
	C436.349731,458.991241 437.345856,458.894318 438.341949,458.842529 
	C438.243774,458.138123 438.145599,457.433716 437.619904,456.090485 
M149.079681,314.535339 
	C141.512787,333.337189 134.055145,352.184326 126.295471,370.906250 
	C124.546539,375.125977 124.501686,378.235565 127.408218,382.145020 
	C134.450485,391.617310 140.855652,401.562408 147.547226,411.296570 
	C152.701172,418.793915 157.900208,426.260315 163.246719,433.982452 
	C163.710800,433.112274 163.895599,432.830780 164.019318,432.524567 
	C177.646500,398.794312 191.308670,365.077911 204.765472,331.279755 
	C205.384705,329.724518 204.713821,327.063293 203.701843,325.544983 
	C195.948822,313.912964 187.971527,302.430267 180.044418,290.914551 
	C175.673950,284.565582 171.265778,278.242554 166.523407,271.401184 
	C160.564545,286.090668 154.943802,299.946564 149.079681,314.535339 
M215.314026,383.175995 
	C212.592514,379.267120 209.870987,375.358246 206.705933,370.812317 
	C194.747025,400.560852 183.106796,429.516693 171.407867,458.618530 
	C203.563324,458.618530 235.040878,458.618530 267.086487,458.618530 
	C249.731873,433.314697 232.737518,408.536102 215.314026,383.175995 
M433.191010,283.689850 
	C439.488495,274.503052 445.918365,265.401855 451.963531,256.051910 
	C453.073792,254.334671 453.463562,251.293396 452.754639,249.398788 
	C448.454132,237.905075 443.753082,226.560791 439.154175,215.179367 
	C437.462982,210.993988 435.685638,206.843384 433.766418,202.242630 
	C433.053101,203.482605 432.646118,204.026260 432.403442,204.635391 
	C420.235901,235.172852 408.077759,265.714081 395.947174,296.266205 
	C395.529358,297.318481 394.884766,298.680847 395.219604,299.569458 
	C398.282867,307.699402 401.539795,315.756348 405.034760,324.578003 
	C414.701660,310.549255 423.748444,297.420471 433.191010,283.689850 
M207.153763,301.352783 
	C209.134048,304.109558 211.114349,306.866333 213.408463,310.059967 
	C217.157043,300.696289 220.805573,292.147064 223.927917,283.409790 
	C224.771225,281.049988 224.762878,277.839478 223.878342,275.498169 
	C218.545563,261.382782 212.853943,247.402740 207.263306,233.385025 
	C203.171631,223.125687 199.050690,212.878021 194.541824,201.624359 
	C187.638916,218.813568 181.079376,234.926773 174.813721,251.153458 
	C174.290710,252.507950 175.358429,254.891678 176.346558,256.350555 
	C186.407196,271.204346 196.604736,285.965454 207.153763,301.352783 
M475.503876,447.974884 
	C473.137421,451.423950 470.770966,454.872986 468.182648,458.645416 
	C491.651123,458.645416 514.141968,458.645416 537.099792,458.645416 
	C528.580444,437.489319 520.250366,416.803253 511.609802,395.346039 
	C499.379974,413.173431 487.647034,430.276550 475.503876,447.974884 
M151.851761,446.639374 
	C140.238052,429.743103 128.624329,412.846863 116.586876,395.334137 
	C107.886086,416.996063 99.564758,437.713257 91.018433,458.990662 
	C111.627205,458.990662 131.545731,459.025482 151.463821,458.947144 
	C153.990036,458.937164 156.425323,454.274384 155.260635,451.809509 
	C154.488144,450.174652 153.284546,448.743469 151.851761,446.639374 
z"/>
<path fill="#DF7E29" opacity="1.000000" stroke="none" 
	d="
M299.730042,255.263336 
	C319.069061,283.395538 338.223358,311.218201 357.229279,339.141846 
	C358.094086,340.412445 358.424683,343.142639 357.654144,344.271332 
	C333.169525,380.136230 308.517975,415.887085 283.886597,451.651672 
	C283.795990,451.783203 283.632019,451.864197 282.966766,452.400543 
	C278.720734,446.298767 274.460327,440.247955 270.273193,434.146790 
	C252.382706,408.078247 234.471344,382.023682 216.733917,355.851318 
	C215.565445,354.127197 214.797241,351.069672 215.503647,349.292450 
	C233.299774,304.519867 251.317673,259.835449 269.310181,215.140961 
	C269.554871,214.533112 269.974579,213.995667 270.645416,212.863846 
	C280.396057,227.085205 289.956482,241.029160 299.730042,255.263336 
z"/>
<path fill="#DF7E29" opacity="1.000000" stroke="none" 
	d="
M454.562225,281.569580 
	C456.951843,278.185394 459.133728,275.096588 461.729279,271.422150 
	C467.330872,285.303375 472.668732,298.518646 477.996948,311.737854 
	C486.186157,332.055023 494.359528,352.378632 502.565918,372.688873 
	C503.582855,375.205688 504.166046,377.272858 502.261047,380.006866 
	C486.961609,401.964081 471.888092,424.078674 456.731415,446.135498 
	C456.190582,446.922516 455.503235,447.608887 454.506744,448.789154 
	C448.446075,433.527557 442.598114,418.768860 436.724915,404.020233 
	C429.173615,385.057587 421.660828,366.079102 413.977997,347.169769 
	C412.777405,344.214935 412.989075,342.081848 414.838318,339.418976 
	C428.112030,320.304932 441.204529,301.065002 454.562225,281.569580 
z"/>
<path fill="#DD7D2A" opacity="1.000000" stroke="none" 
	d="
M307.540894,237.463074 
	C298.203003,223.866959 289.031677,210.592133 280.032440,197.201645 
	C279.086182,195.793671 278.326141,193.379333 278.875244,191.979187 
	C287.844849,169.107010 297.039398,146.323029 306.672150,122.300011 
	C342.238861,211.546631 377.392517,299.756805 412.546204,387.966949 
	C412.137268,388.179657 411.728363,388.392365 411.319427,388.605072 
	C376.798584,338.320404 342.277740,288.035736 307.540894,237.463074 
z"/>
<path fill="#DF7E29" opacity="1.000000" stroke="none" 
	d="
M437.833679,456.409912 
	C438.145599,457.433716 438.243774,458.138123 438.341949,458.842529 
	C437.345856,458.894318 436.349731,458.991241 435.353638,458.991394 
	C391.020935,458.998718 346.688263,458.998474 302.355560,458.989410 
	C301.580322,458.989227 300.805115,458.870636 299.200897,458.739594 
	C322.689392,424.525269 345.807190,390.850952 369.327606,356.590118 
	C392.318085,390.086731 414.968994,423.088623 437.833679,456.409912 
z"/>
<path fill="#DE7D29" opacity="1.000000" stroke="none" 
	d="
M149.201385,314.168884 
	C154.943802,299.946564 160.564545,286.090668 166.523407,271.401184 
	C171.265778,278.242554 175.673950,284.565582 180.044418,290.914551 
	C187.971527,302.430267 195.948822,313.912964 203.701843,325.544983 
	C204.713821,327.063293 205.384705,329.724518 204.765472,331.279755 
	C191.308670,365.077911 177.646500,398.794312 164.019318,432.524567 
	C163.895599,432.830780 163.710800,433.112274 163.246719,433.982452 
	C157.900208,426.260315 152.701172,418.793915 147.547226,411.296570 
	C140.855652,401.562408 134.450485,391.617310 127.408218,382.145020 
	C124.501686,378.235565 124.546539,375.125977 126.295471,370.906250 
	C134.055145,352.184326 141.512787,333.337189 149.201385,314.168884 
z"/>
<path fill="#DF7E29" opacity="1.000000" stroke="none" 
	d="
M215.528595,383.466766 
	C232.737518,408.536102 249.731873,433.314697 267.086487,458.618530 
	C235.040878,458.618530 203.563324,458.618530 171.407867,458.618530 
	C183.106796,429.516693 194.747025,400.560852 206.705933,370.812317 
	C209.870987,375.358246 212.592514,379.267120 215.528595,383.466766 
z"/>
<path fill="#DD7D2A" opacity="1.000000" stroke="none" 
	d="
M432.993103,283.990784 
	C423.748444,297.420471 414.701660,310.549255 405.034760,324.578003 
	C401.539795,315.756348 398.282867,307.699402 395.219604,299.569458 
	C394.884766,298.680847 395.529358,297.318481 395.947174,296.266205 
	C408.077759,265.714081 420.235901,235.172852 432.403442,204.635391 
	C432.646118,204.026260 433.053101,203.482605 433.766418,202.242630 
	C435.685638,206.843384 437.462982,210.993988 439.154175,215.179367 
	C443.753082,226.560791 448.454132,237.905075 452.754639,249.398788 
	C453.463562,251.293396 453.073792,254.334671 451.963531,256.051910 
	C445.918365,265.401855 439.488495,274.503052 432.993103,283.990784 
z"/>
<path fill="#DC7D2A" opacity="1.000000" stroke="none" 
	d="
M206.958862,301.052643 
	C196.604736,285.965454 186.407196,271.204346 176.346558,256.350555 
	C175.358429,254.891678 174.290710,252.507950 174.813721,251.153458 
	C181.079376,234.926773 187.638916,218.813568 194.541824,201.624359 
	C199.050690,212.878021 203.171631,223.125687 207.263306,233.385025 
	C212.853943,247.402740 218.545563,261.382782 223.878342,275.498169 
	C224.762878,277.839478 224.771225,281.049988 223.927917,283.409790 
	C220.805573,292.147064 217.157043,300.696289 213.408463,310.059967 
	C211.114349,306.866333 209.134048,304.109558 206.958862,301.052643 
z"/>
<path fill="#DE7D29" opacity="1.000000" stroke="none" 
	d="
M475.708984,447.677277 
	C487.647034,430.276550 499.379974,413.173431 511.609802,395.346039 
	C520.250366,416.803253 528.580444,437.489319 537.099792,458.645416 
	C514.141968,458.645416 491.651123,458.645416 468.182648,458.645416 
	C470.770966,454.872986 473.137421,451.423950 475.708984,447.677277 
z"/>
<path fill="#DE7D29" opacity="1.000000" stroke="none" 
	d="
M152.062836,446.930237 
	C153.284546,448.743469 154.488144,450.174652 155.260635,451.809509 
	C156.425323,454.274384 153.990036,458.937164 151.463821,458.947144 
	C131.545731,459.025482 111.627205,458.990662 91.018433,458.990662 
	C99.564758,437.713257 107.886086,416.996063 116.586876,395.334137 
	C128.624329,412.846863 140.238052,429.743103 152.062836,446.930237 
z"/>
</svg>